<?xml version="1.0" encoding="UTF-8" standalone="no"?>
<!-- Created with Inkscape (http://www.inkscape.org/) -->

<svg
   xmlns:dc="http://purl.org/dc/elements/1.1/"
   xmlns:cc="http://creativecommons.org/ns#"
   xmlns:rdf="http://www.w3.org/1999/02/22-rdf-syntax-ns#"
   xmlns:svg="http://www.w3.org/2000/svg"
   xmlns="http://www.w3.org/2000/svg"
   xmlns:sodipodi="http://sodipodi.sourceforge.net/DTD/sodipodi-0.dtd"
   xmlns:inkscape="http://www.inkscape.org/namespaces/inkscape"
   width="1240"
   height="1240"
   viewBox="0 0 1239.9999 1239.9999"
   id="svg2"
   version="1.1"
   inkscape:version="0.48.4 r9939"
   sodipodi:docname="Logo-TileLargeMedium.svg">
  <defs
     id="defs4" />
  <sodipodi:namedview
     id="base"
     pagecolor="#ffffff"
     bordercolor="#666666"
     borderopacity="1.0"
     inkscape:pageopacity="0.0"
     inkscape:pageshadow="2"
     inkscape:zoom="0.45619792"
     inkscape:cx="320.06752"
     inkscape:cy="126.72726"
     inkscape:document-units="px"
     inkscape:current-layer="layer1"
     showgrid="false"
     units="px"
     showguides="true"
     inkscape:guide-bbox="true"
     inkscape:window-width="1680"
     inkscape:window-height="987"
     inkscape:window-x="-8"
     inkscape:window-y="-8"
     inkscape:window-maximized="1">
    <sodipodi:guide
       position="412.99997,0"
       orientation="1,0"
       id="guide3369"
       inkscape:label=""
       inkscape:color="rgb(0,0,255)" />
    <sodipodi:guide
       position="0,929.99993"
       orientation="0,1"
       id="guide3371"
       inkscape:label=""
       inkscape:color="rgb(0,0,255)" />
    <sodipodi:guide
       position="0,826.99993"
       orientation="0,1"
       id="guide3373"
       inkscape:label=""
       inkscape:color="rgb(0,0,255)" />
    <sodipodi:guide
       position="206.99998,0"
       orientation="1,0"
       id="guide3375"
       inkscape:label=""
       inkscape:color="rgb(0,0,255)" />
    <sodipodi:guide
       position="619.99995,0"
       orientation="1,0"
       id="guide3402"
       inkscape:label=""
       inkscape:color="rgb(0,0,255)" />
    <sodipodi:guide
       position="826.99993,0"
       orientation="1,0"
       id="guide3404"
       inkscape:label=""
       inkscape:color="rgb(0,0,255)" />
    <sodipodi:guide
       position="10329.999,0"
       orientation="1,0"
       id="guide3406"
       inkscape:label=""
       inkscape:color="rgb(0,0,255)" />
    <sodipodi:guide
       position="1032.9999,0"
       orientation="1,0"
       id="guide3408"
       inkscape:label=""
       inkscape:color="rgb(0,0,255)" />
    <sodipodi:guide
       position="0,619.99995"
       orientation="0,1"
       id="guide3410"
       inkscape:label=""
       inkscape:color="rgb(0,0,255)" />
    <sodipodi:guide
       position="0,412.99997"
       orientation="0,1"
       id="guide3412"
       inkscape:label=""
       inkscape:color="rgb(0,0,255)" />
    <sodipodi:guide
       position="0,309.99998"
       orientation="0,1"
       id="guide3414"
       inkscape:label=""
       inkscape:color="rgb(0,0,255)" />
  </sodipodi:namedview>
  <metadata
     id="metadata7">
    <rdf:RDF>
      <cc:Work
         rdf:about="">
        <dc:format>image/svg+xml</dc:format>
        <dc:type
           rdf:resource="http://purl.org/dc/dcmitype/StillImage" />
        <dc:title />
      </cc:Work>
    </rdf:RDF>
  </metadata>
  <g
     inkscape:groupmode="layer"
     id="layer2"
     inkscape:label="Guides"
     style="display:inline"
     sodipodi:insensitive="true">
    <path
       style="fill:#1ba1e2;fill-opacity:1;fill-rule:evenodd;stroke:none"
       d="m 413,310 0,103 -206,0 0,414 206,0 0,103 414,0 0,-103 206,0 0,-414 -206,0 0,-103 -414,0 z"
       id="rect3418"
       inkscape:connector-curvature="0" />
  </g>
  <g
     inkscape:label="Layer 1"
     inkscape:groupmode="layer"
     id="layer1"
     transform="translate(0,187.63762)"
     style="display:inline">
    <path
       inkscape:connector-curvature="0"
       id="path3384"
       style="font-size:medium;font-style:normal;font-weight:normal;line-height:125%;letter-spacing:0px;word-spacing:0px;fill:#000000;fill-opacity:1;stroke:none;font-family:sans-serif"
       d="m 774.33493,425.04205 q 0,1.83003 0,3.66007 0.20355,1.83004 0.20355,3.66011 0,1.83013 -0.20355,3.66016 0,1.83007 0,3.66011 l 52.66497,32.73769 -32.33099,77.87906 -60.39197,-13.82707 q -4.88015,5.28694 -10.16699,10.16694 l 13.82713,60.39226 -77.87917,32.3309 -32.73771,-52.66552 q -1.83007,0 -3.66014,0.207 -1.83007,0 -3.66013,0 -1.83004,0 -3.66008,0 -1.8301,-0.207 -3.66017,-0.207 l -32.73767,52.66552 -77.87921,-32.3309 13.82713,-60.39226 q -5.28684,-4.88 -10.16699,-10.16694 L 445.331,550.29925 412.99995,472.42019 465.66499,439.6825 q 0,-1.83004 -0.20324,-3.66011 0,-1.83003 0,-3.66016 0,-1.83007 0,-3.66011 0.20324,-1.83004 0.20324,-3.66007 l -52.66504,-32.73772 32.33105,-77.87916 60.39194,13.82707 q 4.88015,-5.28681 10.16699,-10.16697 l -13.82713,-60.39192 77.87921,-32.33102 32.73767,52.66508 q 1.83007,0 3.66017,0 1.83004,-0.20324 3.66008,-0.20324 1.83006,0 3.66013,0.20324 1.83007,0 3.66014,0 l 32.73771,-52.66508 77.87917,32.33102 -13.82713,60.39192 q 5.28684,4.88016 10.16699,10.16697 l 60.39197,-13.82707 32.33099,77.87916 -52.66497,32.73772 z m -23.7908,26.43412 q 0.40667,-4.88015 0.81342,-9.55694 0.40666,-4.88021 0.40666,-9.76037 0,-4.67679 -0.40666,-9.557 -0.40666,-4.88012 -0.81342,-9.55682 l 47.98822,-29.89102 -17.48723,-42.29472 -55.10507,12.81041 q -6.30356,-7.72693 -13.01381,-14.23379 -6.50682,-6.50686 -14.23379,-13.01372 l 12.81042,-55.10511 -42.29465,-17.48714 -30.09432,47.98813 q -4.67682,-0.40707 -9.55697,-0.81307 -4.88018,-0.4071 -9.557,-0.4071 -4.88016,0 -9.76031,0.4071 -4.67678,0.40704 -9.55697,0.81307 l -29.89095,-47.98813 -42.29468,17.48714 12.81041,55.10511 q -7.72693,6.30356 -14.23382,13.01372 -6.50686,6.50686 -13.01375,14.23379 l -55.10509,-12.81041 -17.48724,42.29472 47.98822,30.09432 q -0.40666,4.88019 -0.81342,9.76034 -0.40666,4.67682 -0.40666,9.55697 0,4.67673 0.40666,9.55685 0.40666,4.88018 0.81342,9.557 l -47.98822,29.89103 17.48724,42.29469 55.10509,-12.81045 q 6.30356,7.72697 12.81042,14.23386 6.71022,6.50686 14.43715,13.01371 l -12.81041,55.10467 42.29468,17.48747 30.09428,-47.9883 q 4.67686,0.4071 9.55701,0.81326 4.88015,0.4071 9.55694,0.4071 4.88018,0 9.557,-0.4071 4.88015,-0.40741 9.7603,-0.81326 l 29.89099,47.9883 42.29465,-17.48747 -12.81042,-55.10467 q 7.72697,-6.30359 14.23379,-12.81044 6.50689,-6.71016 13.01381,-14.43713 l 55.10507,12.81045 17.48723,-42.29469 -47.98822,-30.09436 z m -130.5442,-95.56973 q 15.86052,0 29.68762,6.10023 14.03046,5.8969 24.40079,16.26719 10.37032,10.37039 16.26722,24.40079 6.10019,13.82714 6.10019,29.68758 0,15.86053 -6.10019,29.89102 -5.8969,13.82704 -16.26722,24.19743 -10.37033,10.37027 -24.40079,16.47053 -13.8271,5.89674 -29.68762,5.89674 -15.8605,0 -29.89093,-5.89674 -13.82713,-6.10026 -24.19746,-16.47053 -10.37035,-10.37039 -16.47052,-24.19743 -5.89686,-14.03049 -5.89686,-29.89102 0,-15.86044 5.89686,-29.68758 6.10017,-14.0304 16.47052,-24.40079 10.37033,-10.37029 24.19746,-16.26719 14.03043,-6.10023 29.89093,-6.10023 z m 0,130.13752 q 11.1837,0 20.94401,-4.06677 9.76033,-4.27019 17.08057,-11.59037 7.32021,-7.32031 11.38701,-17.08058 4.27016,-9.76033 4.27016,-20.94401 0,-11.18359 -4.27016,-20.94392 -4.0668,-9.76031 -11.38701,-17.08058 -7.32024,-7.32018 -17.08057,-11.38704 -9.76031,-4.2702 -20.94401,-4.2702 -11.18368,0 -20.94398,4.2702 -9.7603,4.06686 -17.08058,11.38704 -7.32024,7.32027 -11.59037,17.08058 -4.06679,9.76033 -4.06679,20.94392 0,11.18368 4.06679,20.94401 4.27013,9.76027 11.59037,17.08058 7.32028,7.32018 17.08058,11.59037 9.7603,4.06677 20.94398,4.06677 z" />
    <text
       xml:space="preserve"
       style="font-size:39.99999237px;font-style:normal;font-weight:normal;line-height:125%;letter-spacing:0px;word-spacing:0px;fill:#000000;fill-opacity:1;stroke:none;font-family:sans-serif"
       x="128.09076"
       y="1202.1228"
       id="text4929-1"
       sodipodi:linespacing="125%"><tspan
         sodipodi:role="line"
         id="tspan4931-7"
         x="128.09076"
         y="1202.1228">This document is used to create medium and large tiles.</tspan><tspan
         sodipodi:role="line"
         x="128.09076"
         y="1252.1228"
         id="tspan4933-4" /><tspan
         sodipodi:role="line"
         x="128.09076"
         y="1302.1228"
         id="tspan2996">Files that are generated:</tspan><tspan
         sodipodi:role="line"
         x="128.09076"
         y="1352.1228"
         id="tspan4937-9" /><tspan
         sodipodi:role="line"
         x="128.09076"
         y="1402.1228"
         id="tspan3055">Square150x150Logo.scale-100.png</tspan><tspan
         sodipodi:role="line"
         x="128.09076"
         y="1452.1228"
         id="tspan3057">Square150x150Logo.scale-125.png</tspan><tspan
         sodipodi:role="line"
         x="128.09076"
         y="1502.1228"
         id="tspan3059">Square150x150Logo.scale-150.png</tspan><tspan
         sodipodi:role="line"
         x="128.09076"
         y="1552.1227"
         id="tspan3061">Square150x150Logo.scale-200.png</tspan><tspan
         sodipodi:role="line"
         x="128.09076"
         y="1602.1227"
         id="tspan3063">Square150x150Logo.scale-400.png</tspan><tspan
         sodipodi:role="line"
         x="128.09076"
         y="1652.1227"
         id="tspan3069" /><tspan
         sodipodi:role="line"
         x="128.09076"
         y="1702.1227"
         id="tspan3071">Square310x310Logo.scale-100.png</tspan><tspan
         sodipodi:role="line"
         x="128.09076"
         y="1752.1227"
         id="tspan3073">Square310x310Logo.scale-125.png</tspan><tspan
         sodipodi:role="line"
         x="128.09076"
         y="1802.1227"
         id="tspan3075">Square310x310Logo.scale-310.png</tspan><tspan
         sodipodi:role="line"
         x="128.09076"
         y="1852.1227"
         id="tspan3077">Square310x310Logo.scale-200.png</tspan><tspan
         sodipodi:role="line"
         x="128.09076"
         y="1902.1227"
         id="tspan3079">Square310x310Logo.scale-400.png</tspan><tspan
         sodipodi:role="line"
         x="128.09076"
         y="1952.1227"
         id="tspan3081" /><tspan
         sodipodi:role="line"
         x="128.09076"
         y="2002.1227"
         id="tspan3065" /></text>
  </g>
</svg>
