<?xml version="1.0" encoding="UTF-8" standalone="no"?>
<!-- Created with Inkscape (http://www.inkscape.org/) -->

<svg
   xmlns:dc="http://purl.org/dc/elements/1.1/"
   xmlns:cc="http://creativecommons.org/ns#"
   xmlns:rdf="http://www.w3.org/1999/02/22-rdf-syntax-ns#"
   xmlns:svg="http://www.w3.org/2000/svg"
   xmlns="http://www.w3.org/2000/svg"
   xmlns:sodipodi="http://sodipodi.sourceforge.net/DTD/sodipodi-0.dtd"
   xmlns:inkscape="http://www.inkscape.org/namespaces/inkscape"
   width="176"
   height="176"
   viewBox="0 0 175.99999 175.99999"
   id="svg2"
   version="1.1"
   inkscape:version="0.48.4 r9939"
   sodipodi:docname="Logo-NoMargins.svg">
  <defs
     id="defs4" />
  <sodipodi:namedview
     id="base"
     pagecolor="#ffffff"
     bordercolor="#666666"
     borderopacity="1.0"
     inkscape:pageopacity="0.0"
     inkscape:pageshadow="2"
     inkscape:zoom="0.80353043"
     inkscape:cx="-91.007785"
     inkscape:cy="-153.93701"
     inkscape:document-units="px"
     inkscape:current-layer="layer1"
     showgrid="false"
     units="px"
     showguides="true"
     inkscape:guide-bbox="true"
     inkscape:window-width="1680"
     inkscape:window-height="987"
     inkscape:window-x="-8"
     inkscape:window-y="-8"
     inkscape:window-maximized="1" />
  <metadata
     id="metadata7">
    <rdf:RDF>
      <cc:Work
         rdf:about="">
        <dc:format>image/svg+xml</dc:format>
        <dc:type
           rdf:resource="http://purl.org/dc/dcmitype/StillImage" />
        <dc:title />
      </cc:Work>
    </rdf:RDF>
  </metadata>
  <g
     inkscape:groupmode="layer"
     id="layer2"
     inkscape:label="Guides"
     style="display:inline"
     sodipodi:insensitive="true">
    <rect
       transform="translate(0,-876.3623)"
       style="fill:#1ba1e2;fill-opacity:1"
       id="rect5061"
       width="175.99998"
       height="175.99995"
       x="4e-006"
       y="876.3623" />
  </g>
  <g
     inkscape:label="Layer 1"
     inkscape:groupmode="layer"
     id="layer1"
     transform="translate(0,-876.36225)"
     style="display:inline">
    <path
       inkscape:connector-curvature="0"
       id="path3384"
       style="font-size:medium;font-style:normal;font-weight:normal;line-height:125%;letter-spacing:0px;word-spacing:0px;fill:#000000;fill-opacity:1;stroke:none;font-family:sans-serif"
       d="m 153.61099,961.25021 q 0,0.77798 0,1.55597 0.0865,0.77799 0.0865,1.55599 0,0.77802 -0.0865,1.55601 0,0.778 0,1.55599 l 22.38897,13.91746 -13.74457,33.10807 -25.67388,-5.8783 q -2.07465,2.2476 -4.3222,4.3223 l 5.8782,25.674 -33.10805,13.7445 -13.917485,-22.3892 q -0.778002,0 -1.555991,0.088 -0.778002,0 -1.556004,0 -0.77799,0 -1.555979,0 -0.778002,-0.088 -1.556005,-0.088 l -13.917471,22.3892 -33.108057,-13.7445 5.878193,-25.674 q -2.247543,-2.0747 -4.322199,-4.3223 L 13.744598,1014.4997 0,981.39163 22.388996,967.47417 q 0,-0.77799 -0.08643,-1.55599 0,-0.77799 0,-1.55601 0,-0.778 0,-1.55599 0.08643,-0.77799 0.08643,-1.55597 L 0,947.33273 13.744598,914.2247 l 25.673864,5.87817 q 2.074656,-2.24753 4.322199,-4.32219 l -5.878193,-25.67384 33.108057,-13.74459 13.917471,22.38901 q 0.778003,0 1.556005,0 0.777989,-0.0864 1.555979,-0.0864 0.778002,0 1.556004,0.0864 0.777989,0 1.555991,0 l 13.917485,-22.38901 33.10805,13.74459 -5.8782,25.67384 q 2.24755,2.07466 4.3222,4.32219 l 25.67388,-5.87817 13.74457,33.10803 -22.38897,13.91748 z m -10.11396,11.23769 q 0.17288,-2.07466 0.3458,-4.06285 0.17288,-2.07468 0.17288,-4.14934 0,-1.9882 -0.17288,-4.06288 -0.17288,-2.07464 -0.3458,-4.0628 l 20.40078,-12.70729 -7.43418,-17.98035 -23.4263,5.44597 q -2.67978,-3.28488 -5.53244,-6.05108 -2.76619,-2.7662 -6.05108,-5.5324 l 5.44597,-23.42631 -17.98033,-7.43415 -12.793726,20.40075 q -1.988218,-0.17306 -4.062865,-0.34566 -2.074661,-0.17306 -4.062879,-0.17306 -2.074648,0 -4.149308,0.17306 -1.988205,0.17304 -4.062866,0.34566 l -12.707267,-20.40075 -17.98035,7.43415 5.445975,23.42631 q -3.284875,2.67978 -6.051083,5.5324 -2.766209,2.7662 -5.532416,6.05108 l -23.426324,-5.44597 -7.434181,17.98035 20.400783,12.79372 q -0.172879,2.07467 -0.345799,4.14932 -0.172879,1.98821 -0.172879,4.06287 0,1.98817 0.172879,4.06281 0.172877,2.07466 0.345799,4.06288 l -20.400783,12.70733 7.434181,17.98023 23.426324,-5.44597 q 2.679766,3.28497 5.445972,6.05117 2.852652,2.7662 6.137527,5.5324 l -5.445975,23.4262 17.98035,7.4342 12.793708,-20.4008 q 1.98822,0.1731 4.06288,0.3458 2.074646,0.173 4.062853,0.173 2.07466,0 4.062879,-0.173 2.074647,-0.1732 4.149307,-0.3458 l 12.707284,20.4008 17.98033,-7.4342 -5.44597,-23.4262 q 3.28489,-2.6798 6.05108,-5.446 2.76621,-2.8526 5.53244,-6.13757 l 23.4263,5.44597 7.43418,-17.98023 -20.40078,-12.79377 z M 87.99998,931.85924 q 6.742634,0 12.62083,2.59333 5.96464,2.5069 10.37328,6.91552 4.40864,4.40867 6.91553,10.37328 2.59332,5.8782 2.59332,12.6208 0,6.74263 -2.59332,12.70729 -2.50689,5.87821 -6.91553,10.28687 -4.40864,4.40854 -10.37328,7.00187 -5.878196,2.5068 -12.62083,2.5068 -6.742622,0 -12.707255,-2.5068 -5.878192,-2.59333 -10.286841,-7.00187 -4.408645,-4.40866 -7.001962,-10.28687 -2.506878,-5.96466 -2.506878,-12.70729 0,-6.7426 2.506878,-12.6208 2.593317,-5.96461 7.001962,-10.37328 4.408649,-4.40862 10.286841,-6.91552 5.964633,-2.59333 12.707255,-2.59333 z m 0,55.32416 q 4.754427,0 8.903734,-1.72893 4.149316,-1.81533 7.261306,-4.92727 3.11198,-3.11201 4.84086,-7.2613 1.81533,-4.14932 1.81533,-8.90373 0,-4.75438 -1.81533,-8.9037 -1.72888,-4.1493 -4.84086,-7.2613 -3.11199,-3.11196 -7.261306,-4.84087 -4.149307,-1.81534 -8.903734,-1.81534 -4.754416,0 -8.903722,1.81534 -4.149307,1.72891 -7.261304,4.84087 -3.111983,3.112 -4.927309,7.2613 -1.728874,4.14932 -1.728874,8.9037 0,4.75441 1.728874,8.90373 1.815326,4.14929 4.927309,7.2613 3.111997,3.11194 7.261304,4.92727 4.149306,1.72893 8.903722,1.72893 z" />
    <text
       xml:space="preserve"
       style="font-size:40px;font-style:normal;font-weight:normal;line-height:125%;letter-spacing:0px;word-spacing:0px;fill:#000000;fill-opacity:1;stroke:none;font-family:sans-serif"
       x="-122.22846"
       y="1071.5552"
       id="text4925"
       sodipodi:linespacing="125%"><tspan
         sodipodi:role="line"
         id="tspan4927"
         x="-122.22846"
         y="1071.5552" /></text>
    <text
       xml:space="preserve"
       style="font-size:39.99999619px;font-style:normal;font-weight:normal;line-height:125%;letter-spacing:0px;word-spacing:0px;fill:#000000;fill-opacity:1;stroke:none;font-family:sans-serif"
       x="-334.29263"
       y="1165.2852"
       id="text4929-1"
       sodipodi:linespacing="125%"><tspan
         sodipodi:role="line"
         id="tspan4931-7"
         x="-334.29263"
         y="1165.2852">This document is used to create icons for the task bar.</tspan><tspan
         sodipodi:role="line"
         x="-334.29263"
         y="1215.2852"
         id="tspan4933-4" /><tspan
         sodipodi:role="line"
         x="-334.29263"
         y="1265.2852"
         id="tspan2996">Files that are generated:</tspan><tspan
         sodipodi:role="line"
         x="-334.29263"
         y="1315.2852"
         id="tspan3006" /><tspan
         sodipodi:role="line"
         x="-334.29263"
         y="1365.2852"
         id="tspan4937-9">Square44x44Logo.targetsize-16_altform-unplated.png</tspan><tspan
         sodipodi:role="line"
         x="-334.29263"
         y="1415.2852"
         id="tspan3039">Square44x44Logo.targetsize-24_altform-unplated.png</tspan><tspan
         sodipodi:role="line"
         x="-334.29263"
         y="1465.2852"
         id="tspan3041">Square44x44Logo.targetsize-48_altform-unplated.png</tspan><tspan
         sodipodi:role="line"
         x="-334.29263"
         y="1515.2852"
         id="tspan3043">Square44x44Logo.targetsize-256_altform-unplated.png</tspan><tspan
         sodipodi:role="line"
         x="-334.29263"
         y="1565.2852"
         id="tspan3047" /><tspan
         sodipodi:role="line"
         x="-334.29263"
         y="1615.2852"
         id="tspan3045" /></text>
  </g>
</svg>
