<?xml version="1.0" encoding="UTF-8" standalone="no"?>
<!-- Created with Inkscape (http://www.inkscape.org/) -->

<svg
   xmlns:dc="http://purl.org/dc/elements/1.1/"
   xmlns:cc="http://creativecommons.org/ns#"
   xmlns:rdf="http://www.w3.org/1999/02/22-rdf-syntax-ns#"
   xmlns:svg="http://www.w3.org/2000/svg"
   xmlns="http://www.w3.org/2000/svg"
   xmlns:sodipodi="http://sodipodi.sourceforge.net/DTD/sodipodi-0.dtd"
   xmlns:inkscape="http://www.inkscape.org/namespaces/inkscape"
   width="1240"
   height="600"
   viewBox="0 0 1239.9999 599.99995"
   id="svg2"
   version="1.1"
   inkscape:version="0.48.4 r9939"
   sodipodi:docname="Logo-TileWide.svg">
  <defs
     id="defs4" />
  <sodipodi:namedview
     id="base"
     pagecolor="#ffffff"
     bordercolor="#666666"
     borderopacity="1.0"
     inkscape:pageopacity="0.0"
     inkscape:pageshadow="2"
     inkscape:zoom="0.49497475"
     inkscape:cx="292.99678"
     inkscape:cy="0.69726914"
     inkscape:document-units="px"
     inkscape:current-layer="layer2"
     showgrid="false"
     units="px"
     showguides="true"
     inkscape:guide-bbox="true"
     inkscape:window-width="1680"
     inkscape:window-height="987"
     inkscape:window-x="-8"
     inkscape:window-y="-8"
     inkscape:window-maximized="1">
    <sodipodi:guide
       position="519.99996,0"
       orientation="1,0"
       id="guide3369"
       inkscape:label=""
       inkscape:color="rgb(0,0,255)" />
    <sodipodi:guide
       position="0,449.99996"
       orientation="0,1"
       id="guide3371"
       inkscape:label=""
       inkscape:color="rgb(0,0,255)" />
    <sodipodi:guide
       position="0,399.99997"
       orientation="0,1"
       id="guide3373"
       inkscape:label=""
       inkscape:color="rgb(0,0,255)" />
    <sodipodi:guide
       position="206.99998,0"
       orientation="1,0"
       id="guide3375"
       inkscape:label=""
       inkscape:color="rgb(0,0,255)" />
    <sodipodi:guide
       position="619.99995,0"
       orientation="1,0"
       id="guide3402"
       inkscape:label=""
       inkscape:color="rgb(0,0,255)" />
    <sodipodi:guide
       position="719.99994,0"
       orientation="1,0"
       id="guide3404"
       inkscape:label=""
       inkscape:color="rgb(0,0,255)" />
    <sodipodi:guide
       position="10329.999,0"
       orientation="1,0"
       id="guide3406"
       inkscape:label=""
       inkscape:color="rgb(0,0,255)" />
    <sodipodi:guide
       position="1032.9999,0"
       orientation="1,0"
       id="guide3408"
       inkscape:label=""
       inkscape:color="rgb(0,0,255)" />
    <sodipodi:guide
       position="0,299.99998"
       orientation="0,1"
       id="guide3410"
       inkscape:label=""
       inkscape:color="rgb(0,0,255)" />
    <sodipodi:guide
       position="0,199.99998"
       orientation="0,1"
       id="guide3412"
       inkscape:label=""
       inkscape:color="rgb(0,0,255)" />
    <sodipodi:guide
       position="0,149.99999"
       orientation="0,1"
       id="guide3414"
       inkscape:label=""
       inkscape:color="rgb(0,0,255)" />
  </sodipodi:namedview>
  <metadata
     id="metadata7">
    <rdf:RDF>
      <cc:Work
         rdf:about="">
        <dc:format>image/svg+xml</dc:format>
        <dc:type
           rdf:resource="http://purl.org/dc/dcmitype/StillImage" />
        <dc:title />
      </cc:Work>
    </rdf:RDF>
  </metadata>
  <g
     inkscape:groupmode="layer"
     id="layer2"
     inkscape:label="Guides"
     sodipodi:insensitive="true"
     style="display:inline">
    <path
       style="fill:#1ba1e2;fill-opacity:1"
       d="m 520,150 0,50 -313,0 0,200 313,0 0,50 200,0 0,-50 313,0 0,-200 -313,0 0,-50 -200,0 z"
       id="rect4287"
       inkscape:connector-curvature="0" />
  </g>
  <g
     inkscape:label="Layer 1"
     inkscape:groupmode="layer"
     id="layer1"
     transform="translate(0,-452.3623)"
     style="display:inline">
    <path
       inkscape:connector-curvature="0"
       id="path3384"
       style="font-size:medium;font-style:normal;font-weight:normal;line-height:125%;letter-spacing:0px;word-spacing:0px;fill:#000000;fill-opacity:1;stroke:none;font-family:sans-serif"
       d="m 694.55791,748.8259 q 0,0.88409 0,1.76816 0.0984,0.88407 0.0984,1.76817 0,0.88411 -0.0984,1.76818 0,0.88411 0,1.76819 l 25.44201,15.8153 -15.61884,37.62274 -29.17487,-6.67976 q -2.35756,2.5541 -4.91159,4.91157 l 6.67978,29.175 -37.6228,15.6188 -15.8153,-25.44228 q -0.88411,0 -1.7682,0.1 -0.88408,0 -1.76817,0 -0.88407,0 -1.76815,0 -0.88412,-0.1 -1.76821,-0.1 l -15.81529,25.44228 -37.62281,-15.6188 6.67978,-29.175 q -2.55405,-2.35747 -4.91161,-4.91157 l -29.17483,6.67976 -15.61887,-37.62274 25.44204,-15.8153 q 0,-0.88408 -0.0982,-1.76819 0,-0.88407 0,-1.76818 0,-0.8841 0,-1.76817 0.0982,-0.88407 0.0982,-1.76816 l -25.44204,-15.81531 15.61887,-37.62279 29.17483,6.67975 q 2.35756,-2.55401 4.91161,-4.91158 l -6.67978,-29.17485 37.62281,-15.61885 15.81529,25.44207 q 0.88409,0 1.76821,0 0.88408,-0.0982 1.76815,-0.0982 0.88409,0 1.76817,0.0982 0.88409,0 1.7682,0 l 15.8153,-25.44207 37.6228,15.61885 -6.67978,29.17485 q 2.55403,2.35757 4.91159,4.91158 l 29.17487,-6.67975 15.61884,37.62279 -25.44201,15.81531 z m -11.49316,12.77012 q 0.19646,-2.35755 0.39296,-4.61688 0.19645,-2.35759 0.19645,-4.71515 0,-2.25933 -0.19645,-4.61691 -0.19646,-2.35754 -0.39296,-4.61683 l 23.18273,-14.44011 -8.44794,-20.43222 -26.62082,6.1886 q -3.04518,-3.73282 -6.28685,-6.87623 -3.14339,-3.14342 -6.87624,-6.28681 l 6.18861,-26.62084 -20.43219,-8.4479 -14.53833,23.18269 q -2.25932,-0.19666 -4.61687,-0.39279 -2.3576,-0.19667 -4.61692,-0.19667 -2.35756,0 -4.71512,0.19667 -2.25932,0.19663 -4.61689,0.39279 l -14.44008,-23.18269 -20.43222,8.4479 6.1886,26.62084 q -3.73281,3.04518 -6.87623,6.28681 -3.14342,3.14341 -6.28684,6.87623 l -26.62081,-6.1886 -8.44795,20.43222 23.18271,14.53833 q -0.19646,2.35758 -0.39295,4.71514 -0.19646,2.25934 -0.19646,4.6169 0,2.25928 0.19646,4.61682 0.19644,2.35757 0.39295,4.61691 l -23.18271,14.44011 8.44795,20.43223 26.62081,-6.18864 q 3.0452,3.73284 6.18861,6.87627 3.24165,3.14341 6.97446,6.28682 l -6.1886,26.62061 20.43222,8.44806 14.53829,-23.18276 q 2.25936,0.19668 4.61691,0.39287 2.35757,0.19668 4.61689,0.19668 2.35758,0 4.61692,-0.19668 2.35755,-0.1968 4.71511,-0.39287 l 14.44009,23.18276 20.43219,-8.44806 -6.18861,-26.62061 q 3.73285,-3.04522 6.87624,-6.18863 3.14341,-3.24162 6.28685,-6.97446 l 26.62082,6.18864 8.44794,-20.43223 -23.18273,-14.53833 z m -63.06482,-46.16895 q 7.66208,0 14.34183,2.94697 6.77802,2.84873 11.78783,7.85854 5.00983,5.00986 7.85856,11.78783 2.94696,6.67977 2.94696,14.34182 0,7.66208 -2.94696,14.4401 -2.84873,6.67974 -7.85856,11.68957 -5.00981,5.0098 -11.78783,7.95679 -6.67975,2.84866 -14.34183,2.84866 -7.66207,0 -14.44006,-2.84866 -6.67978,-2.94699 -11.68959,-7.95679 -5.00984,-5.00983 -7.95678,-11.68957 -2.84872,-6.77802 -2.84872,-14.4401 0,-7.66205 2.84872,-14.34182 2.94694,-6.77797 7.95678,-11.78783 5.00981,-5.00981 11.68959,-7.85854 6.77799,-2.94697 14.44006,-2.94697 z m 0,62.86835 q 5.40274,0 10.11789,-1.96461 4.71513,-2.0629 8.25148,-5.59921 3.53632,-3.53639 5.50095,-8.25149 2.06289,-4.71512 2.06289,-10.11788 0,-5.40269 -2.06289,-10.11785 -1.96463,-4.71512 -5.50095,-8.25149 -3.53635,-3.53631 -8.25148,-5.50096 -4.71515,-2.0629 -10.11789,-2.0629 -5.40276,0 -10.11787,2.0629 -4.71512,1.96465 -8.25149,5.50096 -3.53635,3.53637 -5.5992,8.25149 -1.96465,4.71516 -1.96465,10.11785 0,5.40276 1.96465,10.11788 2.06285,4.7151 5.5992,8.25149 3.53637,3.53631 8.25149,5.59921 4.71511,1.96461 10.11787,1.96461 z" />
    <text
       xml:space="preserve"
       style="font-size:39.99999237px;font-style:normal;font-weight:normal;line-height:125%;letter-spacing:0px;word-spacing:0px;fill:#000000;fill-opacity:1;stroke:none;font-family:sans-serif"
       x="162.73204"
       y="1218.0433"
       id="text4929"
       sodipodi:linespacing="125%"><tspan
         sodipodi:role="line"
         id="tspan4931"
         x="162.73204"
         y="1218.0433">This document is used to create wide tiles.</tspan><tspan
         sodipodi:role="line"
         x="162.73204"
         y="1268.0433"
         id="tspan4933" /><tspan
         sodipodi:role="line"
         x="162.73204"
         y="1318.0433"
         id="tspan2996">Files that are generated:</tspan><tspan
         sodipodi:role="line"
         x="162.73204"
         y="1368.0433"
         id="tspan3006" /><tspan
         sodipodi:role="line"
         x="162.73204"
         y="1418.0433"
         id="tspan4937">Square310x150Logo.scale-100.png</tspan><tspan
         sodipodi:role="line"
         x="162.73204"
         y="1468.0433"
         id="tspan3075">Square310x150Logo.scale-125.png</tspan><tspan
         sodipodi:role="line"
         x="162.73204"
         y="1518.0433"
         id="tspan3077">Square310x150Logo.scale-150.png</tspan><tspan
         sodipodi:role="line"
         x="162.73204"
         y="1568.0432"
         id="tspan3079">Square310x150Logo.scale-200.png</tspan><tspan
         sodipodi:role="line"
         x="162.73204"
         y="1618.0432"
         id="tspan3081">Square310x150Logo.scale-400.png</tspan><tspan
         sodipodi:role="line"
         x="162.73204"
         y="1668.0432"
         id="tspan3083" /></text>
  </g>
</svg>
