<?xml version="1.0" encoding="UTF-8" standalone="no"?>
<!-- Created with Inkscape (http://www.inkscape.org/) -->

<svg
   xmlns:dc="http://purl.org/dc/elements/1.1/"
   xmlns:cc="http://creativecommons.org/ns#"
   xmlns:rdf="http://www.w3.org/1999/02/22-rdf-syntax-ns#"
   xmlns:svg="http://www.w3.org/2000/svg"
   xmlns="http://www.w3.org/2000/svg"
   xmlns:sodipodi="http://sodipodi.sourceforge.net/DTD/sodipodi-0.dtd"
   xmlns:inkscape="http://www.inkscape.org/namespaces/inkscape"
   width="284"
   height="284"
   viewBox="0 0 283.99998 283.99998"
   id="svg2"
   version="1.1"
   inkscape:version="0.48.4 r9939"
   sodipodi:docname="Logo-TileSmall.svg">
  <defs
     id="defs4" />
  <sodipodi:namedview
     id="base"
     pagecolor="#ffffff"
     bordercolor="#666666"
     borderopacity="1.0"
     inkscape:pageopacity="0.0"
     inkscape:pageshadow="2"
     inkscape:zoom="1"
     inkscape:cx="48.709812"
     inkscape:cy="-57.321382"
     inkscape:document-units="px"
     inkscape:current-layer="layer2"
     showgrid="false"
     units="px"
     showguides="true"
     inkscape:guide-bbox="true"
     inkscape:window-width="1680"
     inkscape:window-height="987"
     inkscape:window-x="-8"
     inkscape:window-y="-8"
     inkscape:window-maximized="1">
    <sodipodi:guide
       position="70.999994,0"
       orientation="1,0"
       id="guide3369"
       inkscape:label=""
       inkscape:color="rgb(0,0,255)" />
    <sodipodi:guide
       position="0,236.99998"
       orientation="0,1"
       id="guide3371"
       inkscape:label=""
       inkscape:color="rgb(0,0,255)" />
    <sodipodi:guide
       position="0,212.99998"
       orientation="0,1"
       id="guide3373"
       inkscape:label=""
       inkscape:color="rgb(0,0,255)" />
    <sodipodi:guide
       position="46.999996,0"
       orientation="1,0"
       id="guide3375"
       inkscape:label=""
       inkscape:color="rgb(0,0,255)" />
    <sodipodi:guide
       position="141.99999,0"
       orientation="1,0"
       id="guide3402"
       inkscape:label=""
       inkscape:color="rgb(0,0,255)" />
    <sodipodi:guide
       position="212.99998,0"
       orientation="1,0"
       id="guide3404"
       inkscape:label=""
       inkscape:color="rgb(0,0,255)" />
    <sodipodi:guide
       position="10329.999,0"
       orientation="1,0"
       id="guide3406"
       inkscape:label=""
       inkscape:color="rgb(0,0,255)" />
    <sodipodi:guide
       position="236.99998,0"
       orientation="1,0"
       id="guide3408"
       inkscape:label=""
       inkscape:color="rgb(0,0,255)" />
    <sodipodi:guide
       position="0,141.99999"
       orientation="0,1"
       id="guide3410"
       inkscape:label=""
       inkscape:color="rgb(0,0,255)" />
    <sodipodi:guide
       position="0,70.999994"
       orientation="0,1"
       id="guide3412"
       inkscape:label=""
       inkscape:color="rgb(0,0,255)" />
    <sodipodi:guide
       position="0,46.999996"
       orientation="0,1"
       id="guide3414"
       inkscape:label=""
       inkscape:color="rgb(0,0,255)" />
  </sodipodi:namedview>
  <metadata
     id="metadata7">
    <rdf:RDF>
      <cc:Work
         rdf:about="">
        <dc:format>image/svg+xml</dc:format>
        <dc:type
           rdf:resource="http://purl.org/dc/dcmitype/StillImage" />
        <dc:title />
      </cc:Work>
    </rdf:RDF>
  </metadata>
  <g
     inkscape:groupmode="layer"
     id="layer2"
     inkscape:label="Guides"
     style="display:inline"
     sodipodi:insensitive="true">
    <path
       style="fill:#1ba1e2;fill-opacity:1;display:inline"
       d="m 71,47 0,24 -24,0 0,142 24,0 0,24 142,0 0,-24 24,0 0,-142 -24,0 0,-24 -142,0 z"
       id="rect4282"
       inkscape:connector-curvature="0" />
  </g>
  <g
     inkscape:label="Layer 1"
     inkscape:groupmode="layer"
     id="layer1"
     transform="translate(0,-768.36227)"
     style="display:inline">
    <path
       inkscape:connector-curvature="0"
       id="path3384"
       style="font-size:medium;font-style:normal;font-weight:normal;line-height:125%;letter-spacing:0px;word-spacing:0px;fill:#000000;fill-opacity:1;stroke:none;font-family:sans-serif"
       d="m 194.93614,907.85144 q 0,0.62769 0,1.25538 0.0698,0.6277 0.0698,1.2554 0,0.62773 -0.0698,1.25542 0,0.62771 0,1.2554 l 18.06384,11.22887 -11.08938,26.71214 -20.71415,-4.74262 q -1.67387,1.8134 -3.48723,3.48721 l 4.74264,20.71426 -26.71218,11.08934 -11.22888,-18.06402 q -0.6277,0 -1.25541,0.071 -0.6277,0 -1.25541,0 -0.62769,0 -1.25538,0 -0.62772,-0.071 -1.25543,-0.071 l -11.22886,18.06402 -26.71219,-11.08934 4.74264,-20.71426 q -1.81336,-1.67381 -3.48723,-3.48721 l -20.714145,4.74262 -11.089393,-26.71214 18.063854,-11.22887 q 0,-0.62769 -0.06971,-1.2554 0,-0.62769 0,-1.25542 0,-0.6277 0,-1.2554 0.06971,-0.62769 0.06971,-1.25538 L 70.999992,896.62256 82.089385,869.91038 102.80353,874.653 q 1.67387,-1.81335 3.48723,-3.48722 l -4.74264,-20.71414 26.71219,-11.08938 11.22886,18.06386 q 0.62771,0 1.25543,0 0.62769,-0.0697 1.25538,-0.0697 0.62771,0 1.25541,0.0697 0.62771,0 1.25541,0 l 11.22888,-18.06386 26.71218,11.08938 -4.74264,20.71414 q 1.81336,1.67387 3.48723,3.48722 l 20.71415,-4.74262 11.08938,26.71218 -18.06384,11.22888 z m -8.16012,9.06677 q 0.13948,-1.67387 0.27899,-3.27798 0.13949,-1.67389 0.13949,-3.34776 0,-1.60412 -0.13949,-3.27801 -0.13948,-1.67385 -0.27899,-3.27794 l 16.45972,-10.25248 -5.99803,-14.50688 -18.90078,4.39391 q -2.16209,-2.6503 -4.46367,-4.88212 -2.23181,-2.23182 -4.88212,-4.46365 l 4.39391,-18.90078 -14.50686,-5.99801 -10.32221,16.4597 q -1.60412,-0.13962 -3.27799,-0.27888 -1.67388,-0.13963 -3.27801,-0.13963 -1.67387,0 -3.34773,0.13963 -1.60412,0.13961 -3.278,0.27888 l -10.25245,-16.4597 -14.50687,5.99801 4.39391,18.90078 q -2.6503,2.16209 -4.88213,4.46365 -2.23183,2.23182 -4.46366,4.88212 l -18.900777,-4.39391 -5.998039,14.50688 16.459728,10.32221 q -0.139483,1.67388 -0.279,3.34775 -0.139482,1.60413 -0.139482,3.27799 0,1.6041 0.139482,3.27796 0.139483,1.67388 0.279,3.278 l -16.459728,10.25248 5.998039,14.50688 18.900777,-4.39393 q 2.16209,2.65032 4.39391,4.88215 2.30158,2.23182 4.95188,4.46364 l -4.39391,18.90063 14.50687,5.99812 10.32219,-16.45975 q 1.60414,0.13963 3.27801,0.27894 1.67387,0.13963 3.27798,0.13963 1.67388,0 3.27801,-0.13963 1.67387,-0.13974 3.34774,-0.27894 l 10.25246,16.45975 14.50686,-5.99812 -4.39391,-18.90063 q 2.65031,-2.1621 4.88212,-4.39392 2.23183,-2.30155 4.46367,-4.95187 l 18.90078,4.39393 5.99803,-14.50688 -16.45972,-10.32222 z m -44.77604,-32.77995 q 5.44009,0 10.18272,2.09235 4.81238,2.0226 8.36935,5.57956 3.55697,3.557 5.57958,8.36936 2.09233,4.74264 2.09233,10.18269 0,5.44009 -2.09233,10.25248 -2.02261,4.74261 -5.57958,8.2996 -3.55697,3.55695 -8.36935,5.64931 -4.74263,2.02256 -10.18272,2.02256 -5.44007,0 -10.25244,-2.02256 -4.74264,-2.09236 -8.29961,-5.64931 -3.55698,-3.55699 -5.64931,-8.2996 -2.0226,-4.81239 -2.0226,-10.25248 0,-5.44005 2.0226,-10.18269 2.09233,-4.81236 5.64931,-8.36936 3.55697,-3.55696 8.29961,-5.57956 4.81237,-2.09235 10.25244,-2.09235 z m 0,44.63654 q 3.83596,0 7.1837,-1.39489 3.34775,-1.46465 5.85855,-3.97544 2.5108,-2.51083 3.90569,-5.85855 1.46465,-3.34775 1.46465,-7.1837 0,-3.83591 -1.46465,-7.18366 -1.39489,-3.34774 -3.90569,-5.85856 -2.5108,-2.51078 -5.85855,-3.9057 -3.34774,-1.46465 -7.1837,-1.46465 -3.83594,0 -7.18368,1.46465 -3.34773,1.39492 -5.85856,3.9057 -2.5108,2.51082 -3.97544,5.85856 -1.39489,3.34775 -1.39489,7.18366 0,3.83595 1.39489,7.1837 1.46464,3.34772 3.97544,5.85855 2.51083,2.51079 5.85856,3.97544 3.34774,1.39489 7.18368,1.39489 z" />
    <text
       xml:space="preserve"
       style="font-size:39.99999619px;font-style:normal;font-weight:normal;line-height:125%;letter-spacing:0px;word-spacing:0px;fill:#000000;fill-opacity:1;stroke:none;font-family:sans-serif"
       x="-258.37155"
       y="1149.8925"
       id="text4929"
       sodipodi:linespacing="125%"><tspan
         sodipodi:role="line"
         id="tspan4931"
         x="-258.37155"
         y="1149.8925">This document is used to create small tiles</tspan><tspan
         sodipodi:role="line"
         x="-258.37155"
         y="1199.8925"
         id="tspan4933" /><tspan
         sodipodi:role="line"
         x="-258.37155"
         y="1249.8925"
         id="tspan2996">Files that are generated:</tspan><tspan
         sodipodi:role="line"
         x="-258.37155"
         y="1299.8925"
         id="tspan3006" /><tspan
         sodipodi:role="line"
         x="-258.37155"
         y="1349.8925"
         id="tspan4935">Square71x71Logo.scale-100.png</tspan><tspan
         sodipodi:role="line"
         x="-258.37155"
         y="1399.8925"
         id="tspan2998">Square71x71Logo.scale-125.png</tspan><tspan
         sodipodi:role="line"
         x="-258.37155"
         y="1449.8925"
         id="tspan3000">Square71x71Logo.scale-150.png</tspan><tspan
         sodipodi:role="line"
         x="-258.37155"
         y="1499.8925"
         id="tspan3002">Square71x71Logo.scale-200.png</tspan><tspan
         sodipodi:role="line"
         x="-258.37155"
         y="1549.8925"
         id="tspan3004">Square71x71Logo.scale-400.png</tspan><tspan
         sodipodi:role="line"
         x="-258.37155"
         y="1599.8925"
         id="tspan4937" /></text>
  </g>
</svg>
