<?xml version="1.0" encoding="UTF-8" standalone="no"?>
<!-- Created with Inkscape (http://www.inkscape.org/) -->

<svg
   xmlns:dc="http://purl.org/dc/elements/1.1/"
   xmlns:cc="http://creativecommons.org/ns#"
   xmlns:rdf="http://www.w3.org/1999/02/22-rdf-syntax-ns#"
   xmlns:svg="http://www.w3.org/2000/svg"
   xmlns="http://www.w3.org/2000/svg"
   xmlns:sodipodi="http://sodipodi.sourceforge.net/DTD/sodipodi-0.dtd"
   xmlns:inkscape="http://www.inkscape.org/namespaces/inkscape"
   width="200"
   height="200"
   viewBox="0 0 199.99999 199.99999"
   id="svg2"
   version="1.1"
   inkscape:version="0.48.4 r9939"
   sodipodi:docname="StoreLogo.svg">
  <defs
     id="defs4" />
  <sodipodi:namedview
     id="base"
     pagecolor="#ffffff"
     bordercolor="#666666"
     borderopacity="1.0"
     inkscape:pageopacity="0.0"
     inkscape:pageshadow="2"
     inkscape:zoom="0.70710678"
     inkscape:cx="-668.99379"
     inkscape:cy="-324.6348"
     inkscape:document-units="px"
     inkscape:current-layer="layer2"
     showgrid="false"
     units="px"
     showguides="true"
     inkscape:guide-bbox="true"
     inkscape:window-width="1680"
     inkscape:window-height="987"
     inkscape:window-x="-8"
     inkscape:window-y="-8"
     inkscape:window-maximized="1">
    <sodipodi:guide
       position="35.999997,0"
       orientation="1,0"
       id="guide3369"
       inkscape:label=""
       inkscape:color="rgb(0,0,255)" />
    <sodipodi:guide
       position="0,35.999997"
       orientation="0,1"
       id="guide3373"
       inkscape:label=""
       inkscape:color="rgb(0,0,255)" />
    <sodipodi:guide
       position="99.999993,0"
       orientation="1,0"
       id="guide3402"
       inkscape:label=""
       inkscape:color="rgb(0,0,255)" />
    <sodipodi:guide
       position="163.99999,0"
       orientation="1,0"
       id="guide3404"
       inkscape:label=""
       inkscape:color="rgb(0,0,255)" />
    <sodipodi:guide
       position="10329.999,0"
       orientation="1,0"
       id="guide3406"
       inkscape:label=""
       inkscape:color="rgb(0,0,255)" />
    <sodipodi:guide
       position="0,99.999993"
       orientation="0,1"
       id="guide3410"
       inkscape:label=""
       inkscape:color="rgb(0,0,255)" />
    <sodipodi:guide
       position="0,163.99999"
       orientation="0,1"
       id="guide3412"
       inkscape:label=""
       inkscape:color="rgb(0,0,255)" />
  </sodipodi:namedview>
  <metadata
     id="metadata7">
    <rdf:RDF>
      <cc:Work
         rdf:about="">
        <dc:format>image/svg+xml</dc:format>
        <dc:type
           rdf:resource="http://purl.org/dc/dcmitype/StillImage" />
        <dc:title />
      </cc:Work>
    </rdf:RDF>
  </metadata>
  <g
     inkscape:groupmode="layer"
     id="layer2"
     inkscape:label="Guides"
     sodipodi:insensitive="true"
     style="display:inline;opacity:1">
    <rect
       transform="translate(0,-852.3623)"
       style="fill:#1ba1e2;fill-opacity:1"
       id="rect4891"
       width="128"
       height="128"
       x="36"
       y="888.36224" />
  </g>
  <g
     inkscape:label="Layer 1"
     inkscape:groupmode="layer"
     id="layer1"
     transform="translate(0,-852.36226)"
     style="display:inline">
    <path
       inkscape:connector-curvature="0"
       id="path3384"
       style="font-size:medium;font-style:normal;font-weight:normal;line-height:125%;letter-spacing:0px;word-spacing:0px;fill:#000000;fill-opacity:1;stroke:none;font-family:sans-serif"
       d="m 147.71708,950.09897 q 0,0.56581 0,1.13161 0.0629,0.56582 0.0629,1.13163 0,0.56584 -0.0629,1.13165 0,0.56582 0,1.13163 l 16.2829,10.1218 -9.99606,24.07856 -18.67191,-4.27504 q -1.50884,1.63462 -3.14342,3.1434 l 4.27506,18.67199 -24.07858,9.996 -10.12181,-16.283 q -0.56581,0 -1.13164,0.064 -0.56581,0 -1.131634,0 -0.565805,0 -1.13161,0 -0.565832,-0.064 -1.131656,-0.064 l -10.121793,16.283 -24.078592,-9.996 4.275055,-18.67199 q -1.634578,-1.50878 -3.143418,-3.1434 l -18.671904,4.27504 -9.996072,-24.07856 16.282909,-10.1218 q 0,-0.56581 -0.06284,-1.13163 0,-0.56581 0,-1.13165 0,-0.56581 0,-1.13163 0.06284,-0.5658 0.06284,-1.13161 l -16.282909,-10.12181 9.996072,-24.0786 18.671904,4.27504 q 1.50884,-1.63457 3.143418,-3.14341 l -4.275055,-18.67191 24.078592,-9.99606 10.121793,16.28292 q 0.565824,0 1.131656,0 0.565805,-0.0628 1.13161,-0.0628 0.565824,0 1.131634,0.0628 0.56583,0 1.13164,0 l 10.12181,-16.28292 24.07858,9.99606 -4.27506,18.67191 q 1.63458,1.50884 3.14342,3.14341 l 18.67191,-4.27504 9.99606,24.0786 -16.2829,10.12181 z m -7.3556,8.17287 q 0.12573,-1.50884 0.25149,-2.9548 0.12573,-1.50886 0.12573,-3.0177 0,-1.44597 -0.12573,-2.95483 -0.12573,-1.50882 -0.25149,-2.95476 l 14.83693,-9.24168 -5.40667,-13.07663 -17.03732,3.96071 q -1.94893,-2.38901 -4.02359,-4.40079 -2.01177,-2.01178 -4.40079,-4.02357 l 3.96071,-17.03733 -13.0766,-5.40666 -9.30453,14.83692 q -1.44597,-0.12586 -2.95481,-0.25139 -1.50885,-0.12586 -2.954824,-0.12586 -1.508841,0 -3.017672,0.12586 -1.445967,0.12585 -2.954817,0.25139 l -9.24165,-14.83692 -13.076614,5.40666 3.960707,17.03733 q -2.389002,1.94893 -4.400792,4.02357 -2.011791,2.01178 -4.023581,4.40079 l -17.037319,-3.96071 -5.406682,13.07663 14.836936,9.30453 q -0.125731,1.50885 -0.251493,3.01769 -0.12573,1.44598 -0.12573,2.95481 0,1.44595 0.12573,2.95479 0.125732,1.50885 0.251493,2.95481 l -14.836936,9.24168 5.406682,13.07663 17.037319,-3.96073 q 1.948926,2.38903 3.960707,4.40082 2.074664,2.01178 4.463666,4.02356 l -3.960707,17.03714 13.076614,5.4068 9.304514,-14.83695 q 1.445986,0.12587 2.954826,0.25144 1.50884,0.12587 2.954799,0.12587 1.508854,0 2.954824,-0.12587 1.50884,-0.12596 3.01768,-0.25144 l 9.24166,14.83695 13.0766,-5.4068 -3.96071,-17.03714 q 2.38902,-1.94893 4.40079,-3.96072 2.01179,-2.07463 4.02359,-4.46366 l 17.03732,3.96073 5.40667,-13.07663 -14.83693,-9.30454 z M 99.999986,928.7237 q 4.903744,0 9.178784,1.88606 4.33792,1.82319 7.54421,5.02947 3.20628,3.20631 5.02948,7.54421 1.88604,4.27506 1.88604,9.17877 0,4.90375 -1.88604,9.24168 -1.8232,4.27503 -5.02948,7.48133 -3.20629,3.20627 -7.54421,5.09234 -4.27504,1.82315 -9.178784,1.82315 -4.903725,0 -9.241641,-1.82315 -4.275056,-1.88607 -7.481338,-5.09234 -3.206292,-3.2063 -5.092335,-7.48133 -1.823189,-4.33793 -1.823189,-9.24168 0,-4.90371 1.823189,-9.17877 1.886043,-4.3379 5.092335,-7.54421 3.206282,-3.20628 7.481338,-5.02947 4.337916,-1.88606 9.241641,-1.88606 z m 0,40.23578 q 3.457764,0 6.475444,-1.25737 3.01769,-1.32025 5.28095,-3.5835 2.26326,-2.26328 3.52062,-5.28095 1.32025,-3.01769 1.32025,-6.47545 0,-3.45772 -1.32025,-6.47541 -1.25736,-3.01769 -3.52062,-5.28096 -2.26326,-2.26324 -5.28095,-3.52063 -3.01768,-1.32025 -6.475444,-1.32025 -3.457749,0 -6.475435,1.32025 -3.017672,1.25739 -5.280955,3.52063 -2.263256,2.26327 -3.583495,5.28096 -1.257366,3.01769 -1.257366,6.47541 0,3.45776 1.257366,6.47545 1.320239,3.01767 3.583495,5.28095 2.263283,2.26325 5.280955,3.5835 3.017686,1.25737 6.475435,1.25737 z" />
    <text
       xml:space="preserve"
       style="font-size:39.99999619px;font-style:normal;font-weight:normal;line-height:125%;letter-spacing:0px;word-spacing:0px;fill:#000000;fill-opacity:1;stroke:none;font-family:sans-serif"
       x="-577.09235"
       y="1142.7281"
       id="text4929"
       sodipodi:linespacing="125%"><tspan
         sodipodi:role="line"
         id="tspan4931"
         x="-577.09235"
         y="1142.7281">This document is used to create icons for the Windows Store.</tspan><tspan
         sodipodi:role="line"
         x="-577.09235"
         y="1192.7281"
         id="tspan4933" /><tspan
         sodipodi:role="line"
         x="-577.09235"
         y="1242.7281"
         id="tspan2996">Files that are generated:</tspan><tspan
         sodipodi:role="line"
         x="-577.09235"
         y="1292.7281"
         id="tspan3006" /><tspan
         sodipodi:role="line"
         x="-577.09235"
         y="1342.7281"
         id="tspan4937">StoreLogo.scale-100.png</tspan><tspan
         sodipodi:role="line"
         x="-577.09235"
         y="1392.7281"
         id="tspan3043">StoreLogo.scale-125.png</tspan><tspan
         sodipodi:role="line"
         x="-577.09235"
         y="1442.7281"
         id="tspan3045">StoreLogo.scale-150.png</tspan><tspan
         sodipodi:role="line"
         x="-577.09235"
         y="1492.7281"
         id="tspan3047">StoreLogo.scale-200.png</tspan><tspan
         sodipodi:role="line"
         x="-577.09235"
         y="1542.7281"
         id="tspan3049">StoreLogo.scale-400.png</tspan><tspan
         sodipodi:role="line"
         x="-577.09235"
         y="1592.7281"
         id="tspan3051" /></text>
  </g>
</svg>
